{
  "accessors": [
    {
      "bufferView": 2,
      "componentType": 5126,
      "count": 482,
      "max": [
        47.15684509277344,
        57.30758285522461,
        20.05890464782715
      ],
      "min": [
        0.2578125,
        1.3075828552246094,
        0.0
      ],
      "type": "VEC3"
    },
    {
      "bufferView": 2,
      "byteOffset": 5784,
      "componentType": 5126,
      "count": 482,
      "max": [
        1.0,
        1.0,
        1.0
      ],
      "min": [
        -1.0,
        -1.0,
        -1.0
      ],
      "type": "VEC3"
    },
    {
      "bufferView": 1,
      "componentType": 5126,
      "count": 482,
      "max": [
        3.029994010925293,
        7.605295181274414
      ],
      "min": [
        -4.541039943695068,
        -1.312417984008789
      ],
      "type": "VEC2"
    },
    {
      "bufferView": 0,
      "componentType": 5125,
      "count": 726,
      "type": "SCALAR"
    },
    {
      "bufferView": 2,
      "byteOffset": 11568,
      "componentType": 5126,
      "count": 1780,
      "max": [
        43.82352828979492,
        49.974266052246094,
        3.1178479194641113
      ],
      "min": [
        10.490150451660156,
        8.640899658203125,
        2.58673095703125
      ],
      "type": "VEC3"
    },
    {
      "bufferView": 2,
      "byteOffset": 32928,
      "componentType": 5126,
      "count": 1780,
      "max": [
        0.9998437762260437,
        0.9998437762260437,
        0.1475229412317276
      ],
      "min": [
        -0.9998437762260437,
        -0.9998437762260437,
        -0.16411098837852478
      ],
      "type": "VEC3"
    },
    {
      "bufferView": 1,
      "byteOffset": 3856,
      "componentType": 5126,
      "count": 1780,
      "max": [
        1.277745008468628,
        2.6287379264831543
      ],
      "min": [
        0.7128109931945801,
        2.2404980659484863
      ],
      "type": "VEC2"
    },
    {
      "bufferView": 0,
      "byteOffset": 2904,
      "componentType": 5125,
      "count": 2880,
      "type": "SCALAR"
    },
    {
      "bufferView": 2,
      "byteOffset": 54288,
      "componentType": 5126,
      "count": 152,
      "max": [
        47.92697525024414,
        58.346378326416016,
        32.33967590332031
      ],
      "min": [
        6.386707305908203,
        0.2687873840332031,
        12.991382598876953
      ],
      "type": "VEC3"
    },
    {
      "bufferView": 2,
      "byteOffset": 56112,
      "componentType": 5126,
      "count": 152,
      "max": [
        0.7885131239891052,
        0.5929809212684631,
        -0.6150180697441101
      ],
      "min": [
        -0.7779541015625,
        -0.5929809212684631,
        -0.9347243309020996
      ],
      "type": "VEC3"
    },
    {
      "bufferView": 3,
      "componentType": 5126,
      "count": 152,
      "max": [
        0.9985670447349548,
        0.9994561672210693,
        0.5607972145080566,
        1.0
      ],
      "min": [
        -0.9985670447349548,
        -0.9994561672210693,
        -0.7885130643844604,
        -1.0
      ],
      "type": "VEC4"
    },
    {
      "bufferView": 1,
      "byteOffset": 18096,
      "componentType": 5126,
      "count": 152,
      "max": [
        1.2353730201721191,
        3.077125072479248
      ],
      "min": [
        -3.2684519290924072,
        -1.085705041885376
      ],
      "type": "VEC2"
    },
    {
      "bufferView": 0,
      "byteOffset": 14424,
      "componentType": 5125,
      "count": 240,
      "type": "SCALAR"
    },
    {
      "bufferView": 2,
      "byteOffset": 57936,
      "componentType": 5126,
      "count": 8166,
      "max": [
        44.614288330078125,
        50.867523193359375,
        30.121591567993164
      ],
      "min": [
        9.661474227905273,
        7.689704895019531,
        11.685959815979004
      ],
      "type": "VEC3"
    },
    {
      "bufferView": 2,
      "byteOffset": 155928,
      "componentType": 5126,
      "count": 8166,
      "max": [
        1.0,
        1.0,
        1.0
      ],
      "min": [
        -1.0,
        -1.0,
        -1.0
      ],
      "type": "VEC3"
    },
    {
      "bufferView": 3,
      "byteOffset": 2432,
      "componentType": 5126,
      "count": 8166,
      "max": [
        1.0,
        1.0,
        1.0,
        1.0
      ],
      "min": [
        -1.0,
        -1.0,
        -1.0,
        1.0
      ],
      "type": "VEC4"
    },
    {
      "bufferView": 1,
      "byteOffset": 19312,
      "componentType": 5126,
      "count": 8166,
      "max": [
        1.8994200229644775,
        0.6028779745101929
      ],
      "min": [
        0.0914049968123436,
        0.09058699756860733
      ],
      "type": "VEC2"
    },
    {
      "bufferView": 0,
      "byteOffset": 15384,
      "componentType": 5125,
      "count": 12672,
      "type": "SCALAR"
    },
    {
      "bufferView": 2,
      "byteOffset": 253920,
      "componentType": 5126,
      "count": 3976,
      "max": [
        46.781307220458984,
        56.725128173828125,
        37.86541748046875
      ],
      "min": [
        0.0,
        1.6236000061035156,
        0.0009820000268518925
      ],
      "type": "VEC3"
    },
    {
      "bufferView": 2,
      "byteOffset": 301632,
      "componentType": 5126,
      "count": 3976,
      "max": [
        1.0,
        1.0,
        1.0
      ],
      "min": [
        -1.0,
        -1.0,
        -1.0
      ],
      "type": "VEC3"
    },
    {
      "bufferView": 3,
      "byteOffset": 133088,
      "componentType": 5126,
      "count": 3976,
      "max": [
        1.0,
        1.0,
        1.0,
        1.0
      ],
      "min": [
        -1.0,
        -1.0,
        -1.0,
        -1.0
      ],
      "type": "VEC4"
    },
    {
      "bufferView": 1,
      "byteOffset": 84640,
      "componentType": 5126,
      "count": 3976,
      "max": [
        6.448121070861816,
        2.3573670387268066
      ],
      "min": [
        -5.548901081085205,
        -0.0034570000134408474
      ],
      "type": "VEC2"
    },
    {
      "bufferView": 0,
      "byteOffset": 66072,
      "componentType": 5125,
      "count": 6414,
      "type": "SCALAR"
    },
    {
      "bufferView": 2,
      "byteOffset": 349344,
      "componentType": 5126,
      "count": 745,
      "max": [
        48.089595794677734,
        58.61516571044922,
        41.33612823486328
      ],
      "min": [
        6.224086761474609,
        0.0,
        12.991382598876953
      ],
      "type": "VEC3"
    },
    {
      "bufferView": 2,
      "byteOffset": 358284,
      "componentType": 5126,
      "count": 745,
      "max": [
        1.0,
        1.0,
        0.9999916553497314
      ],
      "min": [
        -1.0,
        -1.0,
        -0.9999985098838806
      ],
      "type": "VEC3"
    },
    {
      "bufferView": 3,
      "byteOffset": 196704,
      "componentType": 5126,
      "count": 745,
      "max": [
        1.0,
        1.0,
        1.0,
        1.0
      ],
      "min": [
        -1.0,
        -1.0,
        -0.9946790337562561,
        -1.0
      ],
      "type": "VEC4"
    },
    {
      "bufferView": 1,
      "byteOffset": 116448,
      "componentType": 5126,
      "count": 745,
      "max": [
        3.1500980854034424,
        2.1685800552368164
      ],
      "min": [
        -3.2732880115509033,
        -2.19405198097229
      ],
      "type": "VEC2"
    },
    {
      "bufferView": 0,
      "byteOffset": 91728,
      "componentType": 5125,
      "count": 1428,
      "type": "SCALAR"
    },
    {
      "bufferView": 2,
      "byteOffset": 367224,
      "componentType": 5126,
      "count": 401,
      "max": [
        43.15684127807617,
        49.30758285522461,
        30.72254753112793
      ],
      "min": [
        17.04001235961914,
        9.30758285522461,
        2.4110279083251953
      ],
      "type": "VEC3"
    },
    {
      "bufferView": 2,
      "byteOffset": 372036,
      "componentType": 5126,
      "count": 401,
      "max": [
        1.0,
        1.0,
        1.0
      ],
      "min": [
        -1.0,
        -1.0,
        -1.0
      ],
      "type": "VEC3"
    },
    {
      "bufferView": 3,
      "byteOffset": 208624,
      "componentType": 5126,
      "count": 401,
      "max": [
        1.0,
        1.0,
        1.0,
        1.0
      ],
      "min": [
        -1.0,
        -1.0,
        -1.0,
        -1.0
      ],
      "type": "VEC4"
    },
    {
      "bufferView": 1,
      "byteOffset": 122408,
      "componentType": 5126,
      "count": 401,
      "max": [
        3.222477912902832,
        1.6660130023956299
      ],
      "min": [
        -0.5685830116271973,
        -2.0100650787353516
      ],
      "type": "VEC2"
    },
    {
      "bufferView": 0,
      "byteOffset": 97440,
      "componentType": 5125,
      "count": 648,
      "type": "SCALAR"
    },
    {
      "bufferView": 2,
      "byteOffset": 376848,
      "componentType": 5126,
      "count": 48,
      "max": [
        32.96181869506836,
        48.79221725463867,
        37.86541748046875
      ],
      "min": [
        19.456954956054688,
        9.822948455810547,
        3.0329580307006836
      ],
      "type": "VEC3"
    },
    {
      "bufferView": 2,
      "byteOffset": 377424,
      "componentType": 5126,
      "count": 48,
      "max": [
        -0.0,
        1.0,
        0.0
      ],
      "min": [
        -1.0,
        -1.0,
        0.0
      ],
      "type": "VEC3"
    },
    {
      "bufferView": 3,
      "byteOffset": 215040,
      "componentType": 5126,
      "count": 48,
      "max": [
        1.0,
        1.0,
        1.0,
        1.0
      ],
      "min": [
        -1.0,
        -1.0,
        0.0,
        -1.0
      ],
      "type": "VEC4"
    },
    {
      "bufferView": 1,
      "byteOffset": 125616,
      "componentType": 5126,
      "count": 48,
      "max": [
        1.0837500095367432,
        0.833046019077301
      ],
      "min": [
        -2.4016060829162598,
        -0.9003220200538635
      ],
      "type": "VEC2"
    },
    {
      "bufferView": 0,
      "byteOffset": 100032,
      "componentType": 5125,
      "count": 72,
      "type": "SCALAR"
    },
    {
      "bufferView": 2,
      "byteOffset": 378000,
      "componentType": 5126,
      "count": 56,
      "max": [
        43.15684127807617,
        49.30758285522461,
        27.678613662719727
      ],
      "min": [
        19.095918655395508,
        18.589750289916992,
        2.416234016418457
      ],
      "type": "VEC3"
    },
    {
      "bufferView": 2,
      "byteOffset": 378672,
      "componentType": 5126,
      "count": 56,
      "max": [
        1.0,
        1.0,
        0.0
      ],
      "min": [
        -1.0,
        -0.0,
        0.0
      ],
      "type": "VEC3"
    },
    {
      "bufferView": 3,
      "byteOffset": 215808,
      "componentType": 5126,
      "count": 56,
      "max": [
        1.0,
        1.0,
        3.7729852920165285e-05,
        1.0
      ],
      "min": [
        -1.0,
        -1.0,
        -0.0008929767063818872,
        -1.0
      ],
      "type": "VEC4"
    },
    {
      "bufferView": 1,
      "byteOffset": 126000,
      "componentType": 5126,
      "count": 56,
      "max": [
        2.7558000087738037,
        0.9608780145645142
      ],
      "min": [
        0.2286980003118515,
        -1.9516819715499878
      ],
      "type": "VEC2"
    },
    {
      "bufferView": 0,
      "byteOffset": 100320,
      "componentType": 5125,
      "count": 84,
      "type": "SCALAR"
    }
  ],
  "asset": {
    "extras": {
      "author": "carolinefangel (https://sketchfab.com/carolinefangel)",
      "license": "CC-BY-4.0 (http://creativecommons.org/licenses/by/4.0/)",
      "source": "https://sketchfab.com/3d-models/japanese-lowpoly-temple-cc26af7781344e908d356030e84e4121",
      "title": "Japanese Lowpoly temple"
    },
    "generator": "Sketchfab-10.67.0",
    "version": "2.0"
  },
  "bufferViews": [
    {
      "buffer": 0,
      "byteLength": 100656,
      "name": "floatBufferViews",
      "target": 34963
    },
    {
      "buffer": 0,
      "byteLength": 126448,
      "byteOffset": 100656,
      "byteStride": 8,
      "name": "floatBufferViews",
      "target": 34962
    },
    {
      "buffer": 0,
      "byteLength": 379344,
      "byteOffset": 227104,
      "byteStride": 12,
      "name": "floatBufferViews",
      "target": 34962
    },
    {
      "buffer": 0,
      "byteLength": 216704,
      "byteOffset": 606448,
      "byteStride": 16,
      "name": "floatBufferViews",
      "target": 34962
    }
  ],
  "buffers": [
    {
      "byteLength": 823152,
      "uri": "scene.bin"
    }
  ],
  "images": [
    {
      "uri": "textures/lambert10SG_baseColor.png"
    },
    {
      "uri": "textures/lambert11SG_baseColor.png"
    },
    {
      "uri": "textures/lambert11SG_normal.png"
    },
    {
      "uri": "textures/lambert13SG_baseColor.png"
    },
    {
      "uri": "textures/lambert13SG_normal.png"
    },
    {
      "uri": "textures/lambert2SG_baseColor.png"
    },
    {
      "uri": "textures/lambert4SG_baseColor.png"
    },
    {
      "uri": "textures/lambert6SG_baseColor.png"
    },
    {
      "uri": "textures/lambert6SG_normal.png"
    },
    {
      "uri": "textures/lambert7SG_normal.png"
    },
    {
      "uri": "textures/lambert8SG_baseColor.png"
    },
    {
      "uri": "textures/lambert8SG_normal.png"
    },
    {
      "uri": "textures/lambert9SG_baseColor.png"
    },
    {
      "uri": "textures/lambert9SG_normal.png"
    }
  ],
  "materials": [
    {
      "doubleSided": true,
      "name": "lambert10SG",
      "pbrMetallicRoughness": {
        "baseColorTexture": {
          "index": 0
        },
        "metallicFactor": 0.3309832317073171,
        "roughnessFactor": 0.2578125
      }
    },
    {
      "doubleSided": true,
      "name": "lambert11SG",
      "normalTexture": {
        "index": 2
      },
      "pbrMetallicRoughness": {
        "baseColorTexture": {
          "index": 1
        },
        "metallicFactor": 0.0,
        "roughnessFactor": 0.3248856707317073
      }
    },
    {
      "doubleSided": true,
      "name": "lambert13SG",
      "normalTexture": {
        "index": 4
      },
      "pbrMetallicRoughness": {
        "baseColorTexture": {
          "index": 3
        },
        "metallicFactor": 0.5383003048780488,
        "roughnessFactor": 0.19073932926829268
      }
    },
    {
      "doubleSided": true,
      "name": "lambert2SG",
      "pbrMetallicRoughness": {
        "baseColorTexture": {
          "index": 5
        },
        "metallicFactor": 0.0,
        "roughnessFactor": 0.6
      }
    },
    {
      "doubleSided": true,
      "name": "lambert4SG",
      "normalTexture": {
        "index": 4
      },
      "pbrMetallicRoughness": {
        "baseColorTexture": {
          "index": 6
        },
        "metallicFactor": 0.2761051829268293,
        "roughnessFactor": 0.3126905487804878
      }
    },
    {
      "doubleSided": true,
      "name": "lambert6SG",
      "normalTexture": {
        "index": 8
      },
      "pbrMetallicRoughness": {
        "baseColorTexture": {
          "index": 7
        },
        "metallicFactor": 0.7639100609756098,
        "roughnessFactor": 0.5504954268292683
      }
    },
    {
      "doubleSided": true,
      "name": "lambert7SG",
      "normalTexture": {
        "index": 9
      },
      "pbrMetallicRoughness": {
        "baseColorTexture": {
          "index": 0
        },
        "metallicFactor": 0.19683689024390244,
        "roughnessFactor": 0.7090320121951219
      }
    },
    {
      "doubleSided": true,
      "name": "lambert8SG",
      "normalTexture": {
        "index": 11
      },
      "pbrMetallicRoughness": {
        "baseColorTexture": {
          "index": 10
        },
        "metallicFactor": 0.30659298780487804,
        "roughnessFactor": 0.6
      }
    },
    {
      "doubleSided": true,
      "name": "lambert9SG",
      "normalTexture": {
        "index": 13,
        "scale": 0.4712271341463415
      },
      "pbrMetallicRoughness": {
        "baseColorTexture": {
          "index": 12
        },
        "metallicFactor": 0.41634908536585363,
        "roughnessFactor": 0.31878810975609756
      }
    }
  ],
  "meshes": [
    {
      "name": "Object_0",
      "primitives": [
        {
          "attributes": {
            "NORMAL": 1,
            "POSITION": 0,
            "TEXCOORD_0": 2
          },
          "indices": 3,
          "material": 3,
          "mode": 4
        }
      ]
    },
    {
      "name": "Object_1",
      "primitives": [
        {
          "attributes": {
            "NORMAL": 5,
            "POSITION": 4,
            "TEXCOORD_0": 6
          },
          "indices": 7,
          "material": 0,
          "mode": 4
        }
      ]
    },
    {
      "name": "Object_2",
      "primitives": [
        {
          "attributes": {
            "NORMAL": 9,
            "POSITION": 8,
            "TANGENT": 10,
            "TEXCOORD_0": 11
          },
          "indices": 12,
          "material": 1,
          "mode": 4
        }
      ]
    },
    {
      "name": "Object_3",
      "primitives": [
        {
          "attributes": {
            "NORMAL": 14,
            "POSITION": 13,
            "TANGENT": 15,
            "TEXCOORD_0": 16
          },
          "indices": 17,
          "material": 2,
          "mode": 4
        }
      ]
    },
    {
      "name": "Object_4",
      "primitives": [
        {
          "attributes": {
            "NORMAL": 19,
            "POSITION": 18,
            "TANGENT": 20,
            "TEXCOORD_0": 21
          },
          "indices": 22,
          "material": 4,
          "mode": 4
        }
      ]
    },
    {
      "name": "Object_5",
      "primitives": [
        {
          "attributes": {
            "NORMAL": 24,
            "POSITION": 23,
            "TANGENT": 25,
            "TEXCOORD_0": 26
          },
          "indices": 27,
          "material": 5,
          "mode": 4
        }
      ]
    },
    {
      "name": "Object_6",
      "primitives": [
        {
          "attributes": {
            "NORMAL": 29,
            "POSITION": 28,
            "TANGENT": 30,
            "TEXCOORD_0": 31
          },
          "indices": 32,
          "material": 6,
          "mode": 4
        }
      ]
    },
    {
      "name": "Object_7",
      "primitives": [
        {
          "attributes": {
            "NORMAL": 34,
            "POSITION": 33,
            "TANGENT": 35,
            "TEXCOORD_0": 36
          },
          "indices": 37,
          "material": 7,
          "mode": 4
        }
      ]
    },
    {
      "name": "Object_8",
      "primitives": [
        {
          "attributes": {
            "NORMAL": 39,
            "POSITION": 38,
            "TANGENT": 40,
            "TEXCOORD_0": 41
          },
          "indices": 42,
          "material": 8,
          "mode": 4
        }
      ]
    }
  ],
  "nodes": [
    {
      "children": [
        1
      ],
      "matrix": [
        1.0,
        0.0,
        0.0,
        0.0,
        0.0,
        2.220446049250313e-16,
        -1.0,
        0.0,
        0.0,
        1.0,
        2.220446049250313e-16,
        0.0,
        0.0,
        0.0,
        0.0,
        1.0
      ],
      "name": "Sketchfab_model"
    },
    {
      "children": [
        2
      ],
      "matrix": [
        1.0,
        0.0,
        0.0,
        0.0,
        0.0,
        1.0,
        0.0,
        0.0,
        0.0,
        0.0,
        1.0,
        0.0,
        -27.156841278076172,
        -29.30758285522461,
        0.0,
        1.0
      ],
      "name": "Export.obj.cleaner.gles"
    },
    {
      "children": [
        3,
        4,
        5,
        6,
        7,
        8,
        9,
        10,
        11
      ],
      "name": "Object_2"
    },
    {
      "mesh": 0,
      "name": "Object_3"
    },
    {
      "mesh": 1,
      "name": "Object_4"
    },
    {
      "mesh": 2,
      "name": "Object_5"
    },
    {
      "mesh": 3,
      "name": "Object_6"
    },
    {
      "mesh": 4,
      "name": "Object_7"
    },
    {
      "mesh": 5,
      "name": "Object_8"
    },
    {
      "mesh": 6,
      "name": "Object_9"
    },
    {
      "mesh": 7,
      "name": "Object_10"
    },
    {
      "mesh": 8,
      "name": "Object_11"
    }
  ],
  "samplers": [
    {
      "magFilter": 9729,
      "minFilter": 9987,
      "wrapS": 10497,
      "wrapT": 10497
    }
  ],
  "scene": 0,
  "scenes": [
    {
      "name": "Sketchfab_Scene",
      "nodes": [
        0
      ]
    }
  ],
  "textures": [
    {
      "sampler": 0,
      "source": 0
    },
    {
      "sampler": 0,
      "source": 1
    },
    {
      "sampler": 0,
      "source": 2
    },
    {
      "sampler": 0,
      "source": 3
    },
    {
      "sampler": 0,
      "source": 4
    },
    {
      "sampler": 0,
      "source": 5
    },
    {
      "sampler": 0,
      "source": 6
    },
    {
      "sampler": 0,
      "source": 7
    },
    {
      "sampler": 0,
      "source": 8
    },
    {
      "sampler": 0,
      "source": 9
    },
    {
      "sampler": 0,
      "source": 10
    },
    {
      "sampler": 0,
      "source": 11
    },
    {
      "sampler": 0,
      "source": 12
    },
    {
      "sampler": 0,
      "source": 13
    }
  ]
}
