{
  "accessors": [
    {
      "bufferView": 1,
      "componentType": 5126,
      "count": 314,
      "max": [
        71.068214416503906,
        22.536539077758789,
        22.065065383911133
      ],
      "min": [
        -50.542198181152344,
        -22.536540985107422,
        -1.9510867595672607
      ],
      "type": "VEC3"
    },
    {
      "bufferView": 1,
      "byteOffset": 3768,
      "componentType": 5126,
      "count": 314,
      "max": [
        1,
        1,
        1
      ],
      "min": [
        -1,
        -1,
        -1
      ],
      "type": "VEC3"
    },
    {
      "bufferView": 2,
      "componentType": 5126,
      "count": 314,
      "max": [
        1,
        1,
        0.52054208517074585,
        1
      ],
      "min": [
        -1,
        -1,
        -0.37634512782096863,
        1
      ],
      "type": "VEC4"
    },
    {
      "bufferView": 0,
      "componentType": 5125,
      "count": 570,
      "max": [
        313
      ],
      "min": [
        0
      ],
      "type": "SCALAR"
    },
    {
      "bufferView": 1,
      "byteOffset": 7536,
      "componentType": 5126,
      "count": 36,
      "max": [
        62.265296936035156,
        20.36775016784668,
        1.4144268035888672
      ],
      "min": [
        -4.6676092147827148,
        -20.36775016784668,
        0
      ],
      "type": "VEC3"
    },
    {
      "bufferView": 1,
      "byteOffset": 7968,
      "componentType": 5126,
      "count": 36,
      "max": [
        1,
        0,
        1
      ],
      "min": [
        -1,
        0,
        0
      ],
      "type": "VEC3"
    },
    {
      "bufferView": 2,
      "byteOffset": 5024,
      "componentType": 5126,
      "count": 36,
      "max": [
        1,
        1,
        0,
        1
      ],
      "min": [
        0,
        -1,
        0,
        1
      ],
      "type": "VEC4"
    },
    {
      "bufferView": 0,
      "byteOffset": 2280,
      "componentType": 5125,
      "count": 54,
      "max": [
        35
      ],
      "min": [
        0
      ],
      "type": "SCALAR"
    },
    {
      "bufferView": 1,
      "byteOffset": 8400,
      "componentType": 5126,
      "count": 104,
      "max": [
        23.342718124389648,
        10.234153747558594,
        8.2920999526977539
      ],
      "min": [
        -65.956703186035156,
        -25.833099365234375,
        -7.7666382789611816
      ],
      "type": "VEC3"
    },
    {
      "bufferView": 1,
      "byteOffset": 9648,
      "componentType": 5126,
      "count": 104,
      "max": [
        0.97963833808898926,
        0.99409490823745728,
        0.99989449977874756
      ],
      "min": [
        -0.97788059711456299,
        -0.99409490823745728,
        -0.99989449977874756
      ],
      "type": "VEC3"
    },
    {
      "bufferView": 2,
      "byteOffset": 5600,
      "componentType": 5126,
      "count": 104,
      "max": [
        0.98207831382751465,
        0.99425530433654785,
        0.23635487258434296,
        1
      ],
      "min": [
        -0.9812740683555603,
        -0.99409490823745728,
        -0.2363550066947937,
        1
      ],
      "type": "VEC4"
    },
    {
      "bufferView": 0,
      "byteOffset": 2496,
      "componentType": 5125,
      "count": 264,
      "max": [
        103
      ],
      "min": [
        0
      ],
      "type": "SCALAR"
    },
    {
      "bufferView": 1,
      "byteOffset": 10896,
      "componentType": 5126,
      "count": 44,
      "max": [
        5.215120792388916,
        0.38651132583618164,
        6.5153017044067383
      ],
      "min": [
        0.74627304077148438,
        -0.38651132583618164,
        0
      ],
      "type": "VEC3"
    },
    {
      "bufferView": 1,
      "byteOffset": 11424,
      "componentType": 5126,
      "count": 44,
      "max": [
        1,
        1,
        0.97735381126403809
      ],
      "min": [
        -1,
        -1,
        -0.99999350309371948
      ],
      "type": "VEC3"
    },
    {
      "bufferView": 2,
      "byteOffset": 7264,
      "componentType": 5126,
      "count": 44,
      "max": [
        1,
        1,
        0.97764700651168823,
        1
      ],
      "min": [
        -1,
        -1,
        -0.99345529079437256,
        1
      ],
      "type": "VEC4"
    },
    {
      "bufferView": 0,
      "byteOffset": 3552,
      "componentType": 5125,
      "count": 102,
      "max": [
        43
      ],
      "min": [
        0
      ],
      "type": "SCALAR"
    },
    {
      "bufferView": 1,
      "byteOffset": 11952,
      "componentType": 5126,
      "count": 16,
      "max": [
        0.98272520303726196,
        0.92256850004196167,
        5.5777955055236816
      ],
      "min": [
        -0.98272520303726196,
        -0.92256850004196167,
        2.5870518684387207
      ],
      "type": "VEC3"
    },
    {
      "bufferView": 1,
      "byteOffset": 12144,
      "componentType": 5126,
      "count": 16,
      "max": [
        0.99499934911727905,
        0.9955589771270752,
        -0.094140894711017609
      ],
      "min": [
        -0.99499934911727905,
        -0.9955589771270752,
        -0.099882267415523529
      ],
      "type": "VEC3"
    },
    {
      "bufferView": 2,
      "byteOffset": 7968,
      "componentType": 5126,
      "count": 16,
      "max": [
        1,
        1,
        0,
        1
      ],
      "min": [
        -1,
        -1,
        0,
        1
      ],
      "type": "VEC4"
    },
    {
      "bufferView": 0,
      "byteOffset": 3960,
      "componentType": 5125,
      "count": 24,
      "max": [
        15
      ],
      "min": [
        0
      ],
      "type": "SCALAR"
    },
    {
      "bufferView": 1,
      "byteOffset": 12336,
      "componentType": 5126,
      "count": 160,
      "max": [
        1.3445959091186523,
        1.2698934078216553,
        6.3537449836730957
      ],
      "min": [
        -1.3445959091186523,
        -1.2698934078216553,
        2.413867712020874
      ],
      "type": "VEC3"
    },
    {
      "bufferView": 1,
      "byteOffset": 14256,
      "componentType": 5126,
      "count": 160,
      "max": [
        0.99632710218429565,
        0.99672198295593262,
        0.99672180414199829
      ],
      "min": [
        -0.99632710218429565,
        -0.99672198295593262,
        -1
      ],
      "type": "VEC3"
    },
    {
      "bufferView": 2,
      "byteOffset": 8224,
      "componentType": 5126,
      "count": 160,
      "max": [
        1,
        1,
        0.42201587557792664,
        1
      ],
      "min": [
        -1,
        -1,
        -0.4220159649848938,
        1
      ],
      "type": "VEC4"
    },
    {
      "bufferView": 0,
      "byteOffset": 4056,
      "componentType": 5125,
      "count": 234,
      "max": [
        159
      ],
      "min": [
        0
      ],
      "type": "SCALAR"
    },
    {
      "bufferView": 1,
      "byteOffset": 16176,
      "componentType": 5126,
      "count": 20,
      "max": [
        206.36790466308594,
        -128.25410461425781,
        69.386497497558594
      ],
      "min": [
        121.77510070800781,
        -223.62519836425781,
        6.9583001136779785
      ],
      "type": "VEC3"
    },
    {
      "bufferView": 1,
      "byteOffset": 16416,
      "componentType": 5126,
      "count": 20,
      "max": [
        1,
        1,
        1
      ],
      "min": [
        -1,
        -1,
        0
      ],
      "type": "VEC3"
    },
    {
      "bufferView": 2,
      "byteOffset": 10784,
      "componentType": 5126,
      "count": 20,
      "max": [
        1,
        1,
        0,
        1
      ],
      "min": [
        -1,
        -1,
        0,
        1
      ],
      "type": "VEC4"
    },
    {
      "bufferView": 0,
      "byteOffset": 4992,
      "componentType": 5125,
      "count": 30,
      "max": [
        19
      ],
      "min": [
        0
      ],
      "type": "SCALAR"
    },
    {
      "bufferView": 1,
      "byteOffset": 16656,
      "componentType": 5126,
      "count": 120,
      "max": [
        208.8572998046875,
        -125.76470184326172,
        71.875900268554688
      ],
      "min": [
        119.28569793701172,
        -226.11459350585938,
        0
      ],
      "type": "VEC3"
    },
    {
      "bufferView": 1,
      "byteOffset": 18096,
      "componentType": 5126,
      "count": 120,
      "max": [
        1,
        1,
        1
      ],
      "min": [
        -1,
        -1,
        -1
      ],
      "type": "VEC3"
    },
    {
      "bufferView": 2,
      "byteOffset": 11104,
      "componentType": 5126,
      "count": 120,
      "max": [
        0,
        0,
        0,
        1
      ],
      "min": [
        0,
        0,
        0,
        1
      ],
      "type": "VEC4"
    },
    {
      "bufferView": 0,
      "byteOffset": 5112,
      "componentType": 5125,
      "count": 240,
      "max": [
        119
      ],
      "min": [
        0
      ],
      "type": "SCALAR"
    }
  ],
  "asset": {
    "extras": {
      "author": "pedrosvalero (https://sketchfab.com/pedrosvalero)",
      "license": "CC-BY-4.0 (http://creativecommons.org/licenses/by/4.0/)",
      "source": "https://sketchfab.com/models/d000cd6eeb7549ad8751c4b705e00307",
      "title": "Tiny Boat From Over The Seas GGJ'17"
    },
    "generator": "Sketchfab-3.18.7",
    "version": "2.0"
  },
  "bufferViews": [
    {
      "buffer": 0,
      "byteLength": 6072,
      "byteOffset": 0,
      "name": "floatBufferViews",
      "target": 34963
    },
    {
      "buffer": 0,
      "byteLength": 19536,
      "byteOffset": 6072,
      "byteStride": 12,
      "name": "floatBufferViews",
      "target": 34962
    },
    {
      "buffer": 0,
      "byteLength": 13024,
      "byteOffset": 25608,
      "byteStride": 16,
      "name": "floatBufferViews",
      "target": 34962
    }
  ],
  "buffers": [
    {
      "byteLength": 38632,
      "uri": "scene.bin"
    }
  ],
  "materials": [
    {
      "doubleSided": true,
      "emissiveFactor": [
        0,
        0,
        0
      ],
      "name": "Barca",
      "pbrMetallicRoughness": {
        "baseColorFactor": [
          0.13333300000000001,
          0.054901999999999999,
          0.011764699999999999,
          1
        ],
        "metallicFactor": 0,
        "roughnessFactor": 0.59999999999999998
      }
    },
    {
      "doubleSided": true,
      "emissiveFactor": [
        0,
        0,
        0
      ],
      "name": "Asientos",
      "pbrMetallicRoughness": {
        "baseColorFactor": [
          0.22352900000000001,
          0.141176,
          0.086274500000000004,
          1
        ],
        "metallicFactor": 0,
        "roughnessFactor": 0.59999999999999998
      }
    },
    {
      "doubleSided": true,
      "emissiveFactor": [
        0,
        0,
        0
      ],
      "name": "remos",
      "pbrMetallicRoughness": {
        "baseColorFactor": [
          0.070588200000000004,
          0.047058799999999998,
          0.027451,
          1
        ],
        "metallicFactor": 0,
        "roughnessFactor": 0.59999999999999998
      }
    },
    {
      "doubleSided": true,
      "emissiveFactor": [
        0,
        0,
        0
      ],
      "name": "Cristales",
      "pbrMetallicRoughness": {
        "baseColorFactor": [
          0.972549,
          1,
          0.52156899999999995,
          1
        ],
        "metallicFactor": 0,
        "roughnessFactor": 0.59999999999999998
      }
    },
    {
      "doubleSided": true,
      "emissiveFactor": [
        0,
        0,
        0
      ],
      "name": "BanderaPirata",
      "pbrMetallicRoughness": {
        "baseColorFactor": [
          0,
          0,
          0,
          1
        ],
        "metallicFactor": 0,
        "roughnessFactor": 0.59999999999999998
      }
    },
    {
      "doubleSided": true,
      "emissiveFactor": [
        0,
        0,
        0
      ],
      "name": "Cajon",
      "pbrMetallicRoughness": {
        "baseColorFactor": [
          0.019607800000000002,
          0.011764699999999999,
          0.0078431400000000002,
          1
        ],
        "metallicFactor": 0,
        "roughnessFactor": 0.59999999999999998
      }
    }
  ],
  "meshes": [
    {
      "name": "Boat_Barca_0",
      "primitives": [
        {
          "attributes": {
            "NORMAL": 1,
            "POSITION": 0,
            "TANGENT": 2
          },
          "indices": 3,
          "material": 0,
          "mode": 4
        }
      ]
    },
    {
      "name": "Bancos_Asientos_0",
      "primitives": [
        {
          "attributes": {
            "NORMAL": 5,
            "POSITION": 4,
            "TANGENT": 6
          },
          "indices": 7,
          "material": 1,
          "mode": 4
        }
      ]
    },
    {
      "name": "Remos_remos_0",
      "primitives": [
        {
          "attributes": {
            "NORMAL": 9,
            "POSITION": 8,
            "TANGENT": 10
          },
          "indices": 11,
          "material": 2,
          "mode": 4
        }
      ]
    },
    {
      "name": "Box001_Asientos_0",
      "primitives": [
        {
          "attributes": {
            "NORMAL": 13,
            "POSITION": 12,
            "TANGENT": 14
          },
          "indices": 15,
          "material": 1,
          "mode": 4
        }
      ]
    },
    {
      "name": "CristalesFarolillos001_Cristales_0",
      "primitives": [
        {
          "attributes": {
            "NORMAL": 17,
            "POSITION": 16,
            "TANGENT": 18
          },
          "indices": 19,
          "material": 3,
          "mode": 4
        }
      ]
    },
    {
      "name": "Farolillo002_BanderaPirata_0",
      "primitives": [
        {
          "attributes": {
            "NORMAL": 21,
            "POSITION": 20,
            "TANGENT": 22
          },
          "indices": 23,
          "material": 4,
          "mode": 4
        }
      ]
    },
    {
      "name": "caja_remos_0",
      "primitives": [
        {
          "attributes": {
            "NORMAL": 25,
            "POSITION": 24,
            "TANGENT": 26
          },
          "indices": 27,
          "material": 2,
          "mode": 4
        }
      ]
    },
    {
      "name": "cantos_Cajon_0",
      "primitives": [
        {
          "attributes": {
            "NORMAL": 29,
            "POSITION": 28,
            "TANGENT": 30
          },
          "indices": 31,
          "material": 5,
          "mode": 4
        }
      ]
    }
  ],
  "nodes": [
    {
      "children": [
        1
      ],
      "name": "RootNode (gltf orientation matrix)",
      "rotation": [
        -0.70710678118654746,
        -0,
        -0,
        0.70710678118654757
      ]
    },
    {
      "children": [
        2
      ],
      "name": "RootNode (model correction matrix)"
    },
    {
      "children": [
        3
      ],
      "matrix": [
        1,
        0,
        0,
        0,
        0,
        0,
        1,
        0,
        0,
        -1,
        0,
        0,
        0,
        0,
        0,
        1
      ],
      "name": "96bd716d405d407bb267c6e222a04644.fbx"
    },
    {
      "children": [
        4,
        7,
        9,
        11,
        13,
        16,
        19,
        22
      ],
      "name": "RootNode"
    },
    {
      "children": [
        5
      ],
      "matrix": [
        1,
        0,
        0,
        0,
        0,
        2.2204460492503131e-16,
        -1,
        0,
        0,
        1,
        2.2204460492503131e-16,
        0,
        26.375198364257812,
        12.474863052368164,
        6.9233536720275879,
        1
      ],
      "name": "Boat"
    },
    {
      "children": [
        6
      ],
      "matrix": [
        0.74167472124099731,
        0,
        -0,
        0,
        0,
        0.74167472124099731,
        0,
        0,
        0,
        0,
        0.74167472124099731,
        0,
        -7.6118144989013672,
        4.76837158203125e-07,
        -7.459014892578125,
        1
      ],
      "name": ""
    },
    {
      "mesh": 0,
      "name": "Boat_Barca_0"
    },
    {
      "children": [
        8
      ],
      "matrix": [
        0.74167472124099731,
        0,
        0,
        0,
        0,
        1.6468487046083997e-16,
        -0.74167472124099731,
        0,
        0,
        0.74167472124099731,
        1.6468487046083997e-16,
        0,
        -1.2613716125488281,
        17.5091552734375,
        7.0342574119567871,
        1
      ],
      "name": "Bancos"
    },
    {
      "mesh": 1,
      "name": "Bancos_Asientos_0"
    },
    {
      "children": [
        10
      ],
      "matrix": [
        0.74167472124099731,
        0,
        0,
        0,
        0,
        1.6468487046083997e-16,
        -0.74167472124099731,
        0,
        0,
        0.74167472124099731,
        1.6468487046083997e-16,
        0,
        33.095779418945312,
        18.941896438598633,
        1.3983838558197021,
        1
      ],
      "name": "Remos"
    },
    {
      "mesh": 2,
      "name": "Remos_remos_0"
    },
    {
      "children": [
        12
      ],
      "matrix": [
        0.74167472124099731,
        0,
        0,
        0,
        0,
        1.6468487046083997e-16,
        -0.74167472124099731,
        0,
        0,
        0.74167472124099731,
        1.6468487046083997e-16,
        0,
        69.9779052734375,
        21.112281799316406,
        6.9151644706726074,
        1
      ],
      "name": "Box001"
    },
    {
      "mesh": 3,
      "name": "Box001_Asientos_0"
    },
    {
      "children": [
        14
      ],
      "matrix": [
        1.1792998313903809,
        0,
        0,
        0,
        0,
        2.6185716514923315e-16,
        -1.1792998313903809,
        0,
        0,
        1.1792998313903809,
        2.6185716514923315e-16,
        0,
        73.581024169921875,
        19.548017501831055,
        6.9316091537475586,
        1
      ],
      "name": "CristalesFarolillos001"
    },
    {
      "children": [
        15
      ],
      "matrix": [
        1,
        0,
        -0,
        0,
        0,
        1,
        0,
        0,
        0,
        0,
        1,
        0,
        0,
        0,
        -2.2086639404296875,
        1
      ],
      "name": ""
    },
    {
      "mesh": 4,
      "name": "CristalesFarolillos001_Cristales_0"
    },
    {
      "children": [
        17
      ],
      "matrix": [
        1.1792998313903809,
        0,
        0,
        0,
        0,
        2.6185716514923315e-16,
        -1.1792998313903809,
        0,
        0,
        1.1792998313903809,
        2.6185716514923315e-16,
        0,
        73.581024169921875,
        19.548017501831055,
        6.9316091537475586,
        1
      ],
      "name": "Farolillo002"
    },
    {
      "children": [
        18
      ],
      "matrix": [
        1,
        0,
        -0,
        0,
        0,
        1,
        0,
        0,
        0,
        0,
        1,
        0,
        0,
        0,
        -2.2086639404296875,
        1
      ],
      "name": ""
    },
    {
      "mesh": 5,
      "name": "Farolillo002_BanderaPirata_0"
    },
    {
      "children": [
        20
      ],
      "matrix": [
        0.07728342850168271,
        0,
        0.034819607314443772,
        0,
        0.034819607314443772,
        0,
        -0.07728342850168271,
        0,
        0,
        0.084765166044235229,
        0,
        0,
        -10.774497985839844,
        15.306846618652344,
        5.9923853874206543,
        1
      ],
      "name": "caja"
    },
    {
      "children": [
        21
      ],
      "matrix": [
        1,
        0,
        -0,
        0,
        0,
        1,
        0,
        0,
        0,
        0,
        1,
        0,
        -164.07150268554688,
        175.93965148925781,
        -35.937950134277344,
        1
      ],
      "name": ""
    },
    {
      "mesh": 6,
      "name": "caja_remos_0"
    },
    {
      "children": [
        23
      ],
      "matrix": [
        0.07728342850168271,
        0,
        0.034819607314443772,
        0,
        0.034819607314443772,
        0,
        -0.07728342850168271,
        0,
        0,
        0.084765166044235229,
        0,
        0,
        -10.774497985839844,
        15.306846618652344,
        5.9923853874206543,
        1
      ],
      "name": "cantos"
    },
    {
      "children": [
        24
      ],
      "matrix": [
        1,
        0,
        -0,
        0,
        0,
        1,
        0,
        0,
        0,
        0,
        1,
        0,
        -164.07150268554688,
        175.93965148925781,
        -35.937950134277344,
        1
      ],
      "name": ""
    },
    {
      "mesh": 7,
      "name": "cantos_Cajon_0"
    }
  ],
  "scene": 0,
  "scenes": [
    {
      "name": "OSG_Scene",
      "nodes": [
        0
      ]
    }
  ]
}

