{"asset":{"generator":"3D Builder","version":"2.0"},"scene":0,"scenes":[{"nodes":[0]}],"nodes":[{"mesh":0,"matrix":[1,0,0,0,0,-1.1920928955078125E-7,-0.99999988079071045,0,0,0.99999988079071045,-1.1920928955078125E-7,0,-69.964103698730469,6.0442744143074378E-8,29.767822265625,1]}],"meshes":[{"primitives":[{"attributes":{"POSITION":0,"TEXCOORD_0":1},"mode":4,"indices":2,"material":0}]}],"materials":[{"pbrMetallicRoughness":{"baseColorFactor":[1,1,1,1],"metallicFactor":1,"roughnessFactor":1,"baseColorTexture":{"index":0,"texCoord":0},"metallicRoughnessTexture":{"index":1,"texCoord":0}},"alphaMode":"OPAQUE"}],"textures":[{"source":0,"sampler":0},{"source":1,"sampler":0}],"images":[{"uri":"LOWPOLY-COLORS_diffuse_2842386355769160226.png"},{"uri":"LOWPOLY-COLORS_specularGlossiness_10896772802023631689.png"}],"samplers":[{"magFilter":9729,"wrapS":10497,"wrapT":10497}],"accessors":[{"bufferView":0,"byteOffset":0,"count":588,"componentType":5126,"type":"VEC3","min":[69.489349365234375,29.608053207397461,3.5686648516275454E-6],"max":[70.509201049804688,30.288253784179688,2.4702949523925781]},{"bufferView":1,"byteOffset":0,"count":588,"componentType":5126,"type":"VEC2"},{"bufferView":2,"byteOffset":0,"count":1728,"componentType":5125,"type":"SCALAR"}],"bufferViews":[{"buffer":0,"byteOffset":0,"byteLength":7056,"byteStride":12,"target":34962},{"buffer":0,"byteOffset":7056,"byteLength":4704,"byteStride":8,"target":34962},{"buffer":0,"byteOffset":11760,"byteLength":6912,"target":34963}],"buffers":[{"byteLength":18672,"uri":"scene.bin"}]}