{"asset":{"generator":"3D Builder","version":"2.0"},"scene":0,"scenes":[{"nodes":[0]}],"nodes":[{"mesh":0,"matrix":[1,0,0,0,0,-1.1920928955078125E-7,-0.99999988079071045,0,0,0.99999988079071045,-1.1920928955078125E-7,0,-69.945709228515625,0.013315696269273758,14.949647903442383,1]}],"meshes":[{"primitives":[{"attributes":{"POSITION":0,"TEXCOORD_0":1},"mode":4,"indices":2,"material":0}]}],"materials":[{"pbrMetallicRoughness":{"baseColorFactor":[1,1,1,1],"metallicFactor":1,"roughnessFactor":1,"baseColorTexture":{"index":0,"texCoord":0},"metallicRoughnessTexture":{"index":1,"texCoord":0}},"alphaMode":"OPAQUE"}],"textures":[{"source":0,"sampler":0},{"source":1,"sampler":0}],"images":[{"uri":"LOWPOLY-COLORS_diffuse_2842386355769160226.png"},{"uri":"LOWPOLY-COLORS_specularGlossiness_10896772802023631689.png"}],"samplers":[{"magFilter":9729,"wrapS":10497,"wrapT":10497}],"accessors":[{"bufferView":0,"byteOffset":0,"count":533,"componentType":5126,"type":"VEC3","min":[65.945602416992188,12.68665885925293,-0.013314036652445793],"max":[73.877738952636719,17.496868133544922,7.1801619529724121]},{"bufferView":1,"byteOffset":0,"count":533,"componentType":5126,"type":"VEC2"},{"bufferView":2,"byteOffset":0,"count":2400,"componentType":5125,"type":"SCALAR"}],"bufferViews":[{"buffer":0,"byteOffset":0,"byteLength":6396,"byteStride":12,"target":34962},{"buffer":0,"byteOffset":6396,"byteLength":4264,"byteStride":8,"target":34962},{"buffer":0,"byteOffset":10660,"byteLength":9600,"target":34963}],"buffers":[{"byteLength":20260,"uri":"scene.bin"}]}