{"asset":{"generator":"3D Builder","version":"2.0"},"scene":0,"scenes":[{"nodes":[0]}],"nodes":[{"mesh":0,"matrix":[1,0,0,0,0,-1.1920928955078125E-7,-0.99999988079071045,0,0,0.99999988079071045,-1.1920928955078125E-7,0,-19.99687385559082,0.71000099182128906,14.881333351135254,1]}],"meshes":[{"primitives":[{"attributes":{"POSITION":0,"TEXCOORD_0":1},"mode":4,"indices":2,"material":0}]}],"materials":[{"pbrMetallicRoughness":{"baseColorFactor":[1,1,1,1],"metallicFactor":1,"roughnessFactor":1,"baseColorTexture":{"index":0,"texCoord":0},"metallicRoughnessTexture":{"index":1,"texCoord":0}},"alphaMode":"OPAQUE"}],"textures":[{"source":0,"sampler":0},{"source":1,"sampler":0}],"images":[{"uri":"LOWPOLY-COLORS_diffuse_2842386355769160226.png"},{"uri":"LOWPOLY-COLORS_specularGlossiness_10896772802023631689.png"}],"samplers":[{"magFilter":9729,"wrapS":10497,"wrapT":10497}],"accessors":[{"bufferView":0,"byteOffset":0,"count":3622,"componentType":5126,"type":"VEC3","min":[9.0000009536743164,4.000004768371582,-0.70999932289123535],"max":[31,25.999984741210937,30.838878631591797]},{"bufferView":1,"byteOffset":0,"count":3622,"componentType":5126,"type":"VEC2"},{"bufferView":2,"byteOffset":0,"count":11118,"componentType":5125,"type":"SCALAR"}],"bufferViews":[{"buffer":0,"byteOffset":0,"byteLength":43464,"byteStride":12,"target":34962},{"buffer":0,"byteOffset":43464,"byteLength":28976,"byteStride":8,"target":34962},{"buffer":0,"byteOffset":72440,"byteLength":44472,"target":34963}],"buffers":[{"byteLength":116912,"uri":"scene.bin"}]}