{"asset":{"generator":"3D Builder","version":"2.0"},"scene":0,"scenes":[{"nodes":[0]}],"nodes":[{"mesh":0,"matrix":[-1.1920926823449918E-7,1.1920928955078125E-7,-0.99999958276748657,0,-0.99999970197677612,-2.8421702654140429E-14,1.1920925402364446E-7,0,5.684340192014907E-14,0.99999988079071045,1.1920926112907182E-7,0,6.0104188919067383,1.9999936819076538,47.866207122802734,1]}],"meshes":[{"primitives":[{"attributes":{"POSITION":0,"TEXCOORD_0":1},"mode":4,"indices":2,"material":0}]}],"materials":[{"pbrMetallicRoughness":{"baseColorFactor":[1,1,1,1],"metallicFactor":1,"roughnessFactor":1,"baseColorTexture":{"index":0,"texCoord":0},"metallicRoughnessTexture":{"index":1,"texCoord":0}},"alphaMode":"OPAQUE"}],"textures":[{"source":0,"sampler":0},{"source":1,"sampler":0}],"images":[{"uri":"LOWPOLY-COLORS_diffuse_2842386355769160226.png"},{"uri":"LOWPOLY-COLORS_specularGlossiness_10896772802023631689.png"}],"samplers":[{"magFilter":9729,"wrapS":10497,"wrapT":10497}],"accessors":[{"bufferView":0,"byteOffset":0,"count":934,"componentType":5126,"type":"VEC3","min":[38,1.4999985694885254,-2],"max":[58,10.499999046325684,9.61642837524414]},{"bufferView":1,"byteOffset":0,"count":934,"componentType":5126,"type":"VEC2"},{"bufferView":2,"byteOffset":0,"count":2976,"componentType":5125,"type":"SCALAR"}],"bufferViews":[{"buffer":0,"byteOffset":0,"byteLength":11208,"byteStride":12,"target":34962},{"buffer":0,"byteOffset":11208,"byteLength":7472,"byteStride":8,"target":34962},{"buffer":0,"byteOffset":18680,"byteLength":11904,"target":34963}],"buffers":[{"byteLength":30584,"uri":"scene.bin"}]}