{"asset":{"generator":"3D Builder","version":"2.0"},"scene":0,"scenes":[{"nodes":[0]}],"nodes":[{"mesh":0,"matrix":[1,0,0,0,0,-1.1920928955078125E-7,-0.99999988079071045,0,0,0.99999988079071045,-1.1920928955078125E-7,0,-79.4582748413086,-0.014738841913640499,24.259498596191406,1]}],"meshes":[{"primitives":[{"attributes":{"POSITION":0,"TEXCOORD_0":1},"mode":4,"indices":2,"material":0}]}],"materials":[{"pbrMetallicRoughness":{"baseColorFactor":[1,1,1,1],"metallicFactor":1,"roughnessFactor":1,"baseColorTexture":{"index":0,"texCoord":0},"metallicRoughnessTexture":{"index":1,"texCoord":0}},"alphaMode":"OPAQUE"}],"textures":[{"source":0,"sampler":0},{"source":1,"sampler":0}],"images":[{"uri":"LOWPOLY-COLORS_diffuse_2842386355769160226.png"},{"uri":"LOWPOLY-COLORS_specularGlossiness_10896772802023631689.png"}],"samplers":[{"magFilter":9729,"wrapS":10497,"wrapT":10497}],"accessors":[{"bufferView":0,"byteOffset":0,"count":278,"componentType":5126,"type":"VEC3","min":[68.120887756347656,18.746253967285156,0.014741734601557255],"max":[72.62384033203125,20.81364631652832,10.254128456115723]},{"bufferView":1,"byteOffset":0,"count":278,"componentType":5126,"type":"VEC2"},{"bufferView":2,"byteOffset":0,"count":1128,"componentType":5125,"type":"SCALAR"}],"bufferViews":[{"buffer":0,"byteOffset":0,"byteLength":3336,"byteStride":12,"target":34962},{"buffer":0,"byteOffset":3336,"byteLength":2224,"byteStride":8,"target":34962},{"buffer":0,"byteOffset":5560,"byteLength":4512,"target":34963}],"buffers":[{"byteLength":10072,"uri":"scene.bin"}]}