{"asset":{"generator":"3D Builder","version":"2.0"},"scene":0,"scenes":[{"nodes":[0]}],"nodes":[{"mesh":0,"matrix":[-1,2.384185791015625E-7,-3.3881317890172014E-21,0,-2.8421712818535796E-14,-1.1920926112907182E-7,0.99999988079071045,0,2.3841860752327193E-7,0.99999988079071045,1.1920926112907182E-7,0,89.853233337402344,-2.1153791749384254E-5,-41.714282989501953,1]}],"meshes":[{"primitives":[{"attributes":{"POSITION":0,"TEXCOORD_0":1},"mode":4,"indices":2,"material":0}]}],"materials":[{"pbrMetallicRoughness":{"baseColorFactor":[1,1,1,1],"metallicFactor":1,"roughnessFactor":1,"baseColorTexture":{"index":0,"texCoord":0},"metallicRoughnessTexture":{"index":1,"texCoord":0}},"alphaMode":"OPAQUE"}],"textures":[{"source":0,"sampler":0},{"source":1,"sampler":0}],"images":[{"uri":"LOWPOLY-COLORS_diffuse_2842386355769160226.png"},{"uri":"LOWPOLY-COLORS_specularGlossiness_10896772802023631689.png"}],"samplers":[{"magFilter":9729,"wrapS":10497,"wrapT":10497}],"accessors":[{"bufferView":0,"byteOffset":0,"count":140,"componentType":5126,"type":"VEC3","min":[84.75,36.4999885559082,4.551808160613291E-6],"max":[95,46.7499885559082,3.9360437393188477]},{"bufferView":1,"byteOffset":0,"count":140,"componentType":5126,"type":"VEC2"},{"bufferView":2,"byteOffset":0,"count":462,"componentType":5125,"type":"SCALAR"}],"bufferViews":[{"buffer":0,"byteOffset":0,"byteLength":1680,"byteStride":12,"target":34962},{"buffer":0,"byteOffset":1680,"byteLength":1120,"byteStride":8,"target":34962},{"buffer":0,"byteOffset":2800,"byteLength":1848,"target":34963}],"buffers":[{"byteLength":4648,"uri":"scene.bin"}]}