{"asset":{"generator":"3D Builder","version":"2.0"},"scene":0,"scenes":[{"nodes":[0]}],"nodes":[{"mesh":0,"matrix":[1,0,0,0,0,-1.1920928955078125E-7,-0.99999988079071045,0,0,0.99999988079071045,-1.1920928955078125E-7,0,-101.90802001953125,1.2999998331069946,14.916346549987793,1]}],"meshes":[{"primitives":[{"attributes":{"POSITION":0,"TEXCOORD_0":1},"mode":4,"indices":2,"material":0}]}],"materials":[{"pbrMetallicRoughness":{"baseColorFactor":[1,1,1,1],"metallicFactor":1,"roughnessFactor":1,"baseColorTexture":{"index":0,"texCoord":0},"metallicRoughnessTexture":{"index":1,"texCoord":0}},"alphaMode":"OPAQUE"}],"textures":[{"source":0,"sampler":0},{"source":1,"sampler":0}],"images":[{"uri":"LOWPOLY-COLORS_diffuse_2842386355769160226.png"},{"uri":"LOWPOLY-COLORS_specularGlossiness_10896772802023631689.png"}],"samplers":[{"magFilter":9729,"wrapS":10497,"wrapT":10497}],"accessors":[{"bufferView":0,"byteOffset":0,"count":1831,"componentType":5126,"type":"VEC3","min":[100.39999389648437,4.9422121047973633,-1.2999982833862305],"max":[103.60000610351562,25.057779312133789,3.5644772052764893]},{"bufferView":1,"byteOffset":0,"count":1831,"componentType":5126,"type":"VEC2"},{"bufferView":2,"byteOffset":0,"count":3576,"componentType":5125,"type":"SCALAR"}],"bufferViews":[{"buffer":0,"byteOffset":0,"byteLength":21972,"byteStride":12,"target":34962},{"buffer":0,"byteOffset":21972,"byteLength":14648,"byteStride":8,"target":34962},{"buffer":0,"byteOffset":36620,"byteLength":14304,"target":34963}],"buffers":[{"byteLength":50924,"uri":"scene.bin"}]}