{"asset":{"generator":"3D Builder","version":"2.0"},"scene":0,"scenes":[{"nodes":[0]}],"nodes":[{"mesh":0,"matrix":[1,0,0,0,0,-1.1920928955078125E-7,-0.99999988079071045,0,0,0.99999988079071045,-1.1920928955078125E-7,0,-69.98187255859375,1.1327620086376555E-7,39.964622497558594,1]}],"meshes":[{"primitives":[{"attributes":{"POSITION":0,"TEXCOORD_0":1},"mode":4,"indices":2,"material":0}]}],"materials":[{"pbrMetallicRoughness":{"baseColorFactor":[1,1,1,1],"metallicFactor":1,"roughnessFactor":1,"baseColorTexture":{"index":0,"texCoord":0},"metallicRoughnessTexture":{"index":1,"texCoord":0}},"alphaMode":"OPAQUE"}],"textures":[{"source":0,"sampler":0},{"source":1,"sampler":0}],"images":[{"uri":"LOWPOLY-COLORS_diffuse_2842386355769160226.png"},{"uri":"LOWPOLY-COLORS_specularGlossiness_10896772802023631689.png"}],"samplers":[{"magFilter":9729,"wrapS":10497,"wrapT":10497}],"accessors":[{"bufferView":0,"byteOffset":0,"count":747,"componentType":5126,"type":"VEC3","min":[61.499996185302734,32.999992370605469,4.8200186029134784E-6],"max":[78.5,46.999992370605469,7.4446249008178711]},{"bufferView":1,"byteOffset":0,"count":747,"componentType":5126,"type":"VEC2"},{"bufferView":2,"byteOffset":0,"count":2316,"componentType":5125,"type":"SCALAR"}],"bufferViews":[{"buffer":0,"byteOffset":0,"byteLength":8964,"byteStride":12,"target":34962},{"buffer":0,"byteOffset":8964,"byteLength":5976,"byteStride":8,"target":34962},{"buffer":0,"byteOffset":14940,"byteLength":9264,"target":34963}],"buffers":[{"byteLength":24204,"uri":"scene.bin"}]}