{"asset":{"generator":"3D Builder","version":"2.0"},"scene":0,"scenes":[{"nodes":[0]}],"nodes":[{"mesh":0,"matrix":[1,0,0,0,0,-1.1920928955078125E-7,-0.99999988079071045,0,0,0.99999988079071045,-1.1920928955078125E-7,0,-80.002655029296875,-0.024917613714933395,15.028354644775391,1]}],"meshes":[{"primitives":[{"attributes":{"POSITION":0,"TEXCOORD_0":1},"mode":4,"indices":2,"material":0}]}],"materials":[{"pbrMetallicRoughness":{"baseColorFactor":[1,1,1,1],"metallicFactor":1,"roughnessFactor":1,"baseColorTexture":{"index":0,"texCoord":0},"metallicRoughnessTexture":{"index":1,"texCoord":0}},"alphaMode":"OPAQUE"}],"textures":[{"source":0,"sampler":0},{"source":1,"sampler":0}],"images":[{"uri":"LOWPOLY-COLORS_diffuse_2842386355769160226.png"},{"uri":"LOWPOLY-COLORS_specularGlossiness_10896772802023631689.png"}],"samplers":[{"magFilter":9729,"wrapS":10497,"wrapT":10497}],"accessors":[{"bufferView":0,"byteOffset":0,"count":804,"componentType":5126,"type":"VEC3","min":[77.632011413574219,12.820761680603027,0.024919291958212852],"max":[82.342803955078125,17.484367370605469,6.5183138847351074]},{"bufferView":1,"byteOffset":0,"count":804,"componentType":5126,"type":"VEC2"},{"bufferView":2,"byteOffset":0,"count":2787,"componentType":5125,"type":"SCALAR"}],"bufferViews":[{"buffer":0,"byteOffset":0,"byteLength":9648,"byteStride":12,"target":34962},{"buffer":0,"byteOffset":9648,"byteLength":6432,"byteStride":8,"target":34962},{"buffer":0,"byteOffset":16080,"byteLength":11148,"target":34963}],"buffers":[{"byteLength":27228,"uri":"scene.bin"}]}