{
  "accessors": [
    {
      "bufferView": 2,
      "componentType": 5126,
      "count": 1610,
      "max": [
        2.5679900646209717,
        2.4064600467681885,
        5.6219301223754883
      ],
      "min": [
        -3.0623199939727783,
        -2.6417698860168457,
        0
      ],
      "type": "VEC3"
    },
    {
      "bufferView": 2,
      "byteOffset": 19320,
      "componentType": 5126,
      "count": 1610,
      "max": [
        0.99802404642105103,
        0.99836301803588867,
        0.9985317587852478
      ],
      "min": [
        -0.99873620271682739,
        -0.99605077505111694,
        -0.99991500377655029
      ],
      "type": "VEC3"
    },
    {
      "bufferView": 3,
      "componentType": 5126,
      "count": 1610,
      "max": [
        0.99999469518661499,
        0.97329521179199219,
        0.99999779462814331,
        1
      ],
      "min": [
        -0.98511523008346558,
        -0.9983406662940979,
        -0.99997824430465698,
        -1
      ],
      "type": "VEC4"
    },
    {
      "bufferView": 1,
      "componentType": 5126,
      "count": 1610,
      "max": [
        0.36577001214027405,
        0.67742997407913208
      ],
      "min": [
        0.13824999332427979,
        0.026830000802874565
      ],
      "type": "VEC2"
    },
    {
      "bufferView": 0,
      "componentType": 5125,
      "count": 4098,
      "max": [
        1609
      ],
      "min": [
        0
      ],
      "type": "SCALAR"
    }
  ],
  "asset": {
    "extras": {
      "author": "proxy_doug (https://sketchfab.com/proxy_doug)",
      "license": "CC-BY-4.0 (http://creativecommons.org/licenses/by/4.0/)",
      "source": "https://sketchfab.com/models/df0dacc177874238b9dd3632db2185d7",
      "title": "Sakura Tree 2"
    },
    "generator": "Sketchfab-3.47.8",
    "version": "2.0"
  },
  "bufferViews": [
    {
      "buffer": 0,
      "byteLength": 16392,
      "byteOffset": 0,
      "name": "floatBufferViews",
      "target": 34963
    },
    {
      "buffer": 0,
      "byteLength": 12880,
      "byteOffset": 16392,
      "byteStride": 8,
      "name": "floatBufferViews",
      "target": 34962
    },
    {
      "buffer": 0,
      "byteLength": 38640,
      "byteOffset": 29272,
      "byteStride": 12,
      "name": "floatBufferViews",
      "target": 34962
    },
    {
      "buffer": 0,
      "byteLength": 25760,
      "byteOffset": 67912,
      "byteStride": 16,
      "name": "floatBufferViews",
      "target": 34962
    }
  ],
  "buffers": [
    {
      "byteLength": 93672,
      "uri": "scene.bin"
    }
  ],
  "extensionsRequired": [
    "KHR_materials_pbrSpecularGlossiness"
  ],
  "extensionsUsed": [
    "KHR_materials_pbrSpecularGlossiness"
  ],
  "images": [
    {
      "uri": "textures/Material_diffuse.png"
    }
  ],
  "materials": [
    {
      "doubleSided": true,
      "emissiveFactor": [
        0,
        0,
        0
      ],
      "extensions": {
        "KHR_materials_pbrSpecularGlossiness": {
          "diffuseFactor": [
            1,
            1,
            1,
            1
          ],
          "diffuseTexture": {
            "index": 0,
            "texCoord": 0
          },
          "glossinessFactor": 0.40000000000000002,
          "specularFactor": [
            0,
            0,
            0
          ]
        }
      },
      "name": "Material"
    }
  ],
  "meshes": [
    {
      "name": "SakuraTree2_0",
      "primitives": [
        {
          "attributes": {
            "NORMAL": 1,
            "POSITION": 0,
            "TANGENT": 2,
            "TEXCOORD_0": 3
          },
          "indices": 4,
          "material": 0,
          "mode": 4
        }
      ]
    }
  ],
  "nodes": [
    {
      "children": [
        1
      ],
      "name": "RootNode (gltf orientation matrix)",
      "rotation": [
        -0.70710678118654746,
        -0,
        -0,
        0.70710678118654757
      ]
    },
    {
      "children": [
        2
      ],
      "name": "RootNode (model correction matrix)"
    },
    {
      "children": [
        3
      ],
      "name": "Root"
    },
    {
      "children": [
        4
      ],
      "matrix": [
        -1.2236699999999998,
        1.2322299999999999,
        0,
        0,
        -1.2322299999999999,
        -1.2236699999999998,
        0,
        0,
        0,
        0,
        1.7365900000000001,
        0,
        0,
        0,
        0,
        1
      ],
      "name": "SakuraTree2"
    },
    {
      "mesh": 0,
      "name": "SakuraTree2_0"
    }
  ],
  "samplers": [
    {
      "magFilter": 9729,
      "minFilter": 9987,
      "wrapS": 10497,
      "wrapT": 10497
    }
  ],
  "scene": 0,
  "scenes": [
    {
      "name": "OSG_Scene",
      "nodes": [
        0
      ]
    }
  ],
  "textures": [
    {
      "sampler": 0,
      "source": 0
    }
  ]
}

