{"asset":{"generator":"3D Builder","version":"2.0"},"scene":0,"scenes":[{"nodes":[0]}],"nodes":[{"mesh":0,"matrix":[1,0,0,0,0,-1.1920928955078125E-7,-0.99999988079071045,0,0,0.99999988079071045,-1.1920928955078125E-7,0,-254.92568969726562,-1.0000003576278687,78.592887878417969,1]}],"meshes":[{"primitives":[{"attributes":{"POSITION":0,"TEXCOORD_0":1},"mode":4,"indices":2,"material":0}]}],"materials":[{"pbrMetallicRoughness":{"baseColorFactor":[1,1,1,1],"metallicFactor":1,"roughnessFactor":1,"baseColorTexture":{"index":0,"texCoord":0},"metallicRoughnessTexture":{"index":1,"texCoord":0}},"alphaMode":"OPAQUE"}],"textures":[{"source":0,"sampler":0},{"source":1,"sampler":0}],"images":[{"uri":"LOWPOLY-COLORS_diffuse_2842386355769160226.png"},{"uri":"LOWPOLY-COLORS_specularGlossiness_10896772802023631689.png"}],"samplers":[{"magFilter":9729,"wrapS":10497,"wrapT":10497}],"accessors":[{"bufferView":0,"byteOffset":0,"count":978,"componentType":5126,"type":"VEC3","min":[251.1959228515625,68.838180541992188,1.0000095367431641],"max":[258.8040771484375,89.19012451171875,24.803005218505859]},{"bufferView":1,"byteOffset":0,"count":978,"componentType":5126,"type":"VEC2"},{"bufferView":2,"byteOffset":0,"count":3276,"componentType":5125,"type":"SCALAR"}],"bufferViews":[{"buffer":0,"byteOffset":0,"byteLength":11736,"byteStride":12,"target":34962},{"buffer":0,"byteOffset":11736,"byteLength":7824,"byteStride":8,"target":34962},{"buffer":0,"byteOffset":19560,"byteLength":13104,"target":34963}],"buffers":[{"byteLength":32664,"uri":"scene.bin"}]}